<svg version="1.1" id="Icons" xmlns="http://www.w3.org/2000/svg" xmlns:xlink="http://www.w3.org/1999/xlink" viewBox="-3.2 -3.2 38.40 38.40" xml:space="preserve" width="179px" height="179px" fill="#5a5464" stroke="#5a5464" transform="matrix(1, 0, 0, 1, 0, 0)rotate(0)"><g id="SVGRepo_bgCarrier" stroke-width="0"><path transform="translate(-3.2, -3.2), scale(1.2)" d="M16,31.581047202150028C19.1543459725199,31.61790616676063,21.9748982802155,29.477198726716075,24.093908175679218,27.1403088789587C25.953259527862432,25.089776076996475,26.063521660414864,22.180285916653695,26.913074677091977,19.54587290904775C27.760076827969556,16.91936998346261,30.17183609094231,14.281702183440494,29.05431087946475,11.75839727451439C27.925069570641103,9.208638120401503,24.172713392157583,9.48319747665646,21.804437674885893,8.010876925785325C19.696378733030397,6.700329137828825,18.374535433936302,4.365940959001303,16,3.6427331881390685C13.023886441875383,2.7363039045649744,9.296812689203573,1.4909176728033422,6.896768075464266,3.4704761612130053C4.475406224642702,5.46761712178758,6.190987754914862,9.512788732168904,5.251937424751279,12.507742772957915C4.3290121015875895,15.451268627928949,0.904879314025961,17.68576482349638,1.4899762036921658,20.71459252422858C2.076305122748533,23.749797980185512,5.567995908083578,25.09970651510015,8.042365392402397,26.952744403613057C10.560140839793414,28.83828871231499,12.854666994894442,31.544293555297802,16,31.581047202150028" fill="#21b5a4" strokewidth="0"></path></g><g id="SVGRepo_tracerCarrier" stroke-linecap="round" stroke-linejoin="round"></g><g id="SVGRepo_iconCarrier"> <style type="text/css"> .st0{fill:none;stroke:#000000;stroke-width:0.00032;stroke-linecap:round;stroke-linejoin:round;stroke-miterlimit:10;} </style> <path d="M27,4H5C3.3,4,2,5.3,2,7v18c0,1.7,1.3,3,3,3h22c1.7,0,3-1.3,3-3V7C30,5.3,28.7,4,27,4z M9.1,7.6c0.1-0.1,0.1-0.2,0.2-0.3 c0.1-0.1,0.2-0.2,0.3-0.2C10,6.9,10.4,7,10.7,7.3c0.1,0.1,0.2,0.2,0.2,0.3C11,7.7,11,7.9,11,8c0,0.3-0.1,0.5-0.3,0.7 C10.5,8.9,10.3,9,10,9C9.7,9,9.5,8.9,9.3,8.7C9.1,8.5,9,8.3,9,8C9,7.9,9,7.7,9.1,7.6z M6,8c0-0.3,0.1-0.5,0.3-0.7 c0,0,0.1-0.1,0.1-0.1c0.1,0,0.1-0.1,0.2-0.1C6.7,7,6.7,7,6.8,7c0.1,0,0.3,0,0.4,0c0.1,0,0.1,0,0.2,0.1c0.1,0,0.1,0.1,0.2,0.1 c0,0,0.1,0.1,0.1,0.1c0.1,0.1,0.2,0.2,0.2,0.3C8,7.7,8,7.9,8,8c0,0.1,0,0.3-0.1,0.4C7.9,8.5,7.8,8.6,7.7,8.7C7.5,8.9,7.3,9,7,9 S6.5,8.9,6.3,8.7C6.1,8.5,6,8.3,6,8z M11.7,21.3c0.4,0.4,0.4,1,0,1.4C11.5,22.9,11.3,23,11,23s-0.5-0.1-0.7-0.3l-3-3 c-0.4-0.4-0.4-1,0-1.4l3-3c0.4-0.4,1-0.4,1.4,0s0.4,1,0,1.4L9.4,19L11.7,21.3z M12.6,8.9c-0.1-0.1-0.2-0.1-0.3-0.2 c-0.1-0.1-0.2-0.2-0.2-0.3C12,8.3,12,8.1,12,8c0-0.1,0-0.3,0.1-0.4c0.1-0.1,0.1-0.2,0.2-0.3c0.4-0.4,1-0.4,1.4,0 c0.1,0.1,0.2,0.2,0.2,0.3C14,7.7,14,7.9,14,8c0,0.1,0,0.3-0.1,0.4c-0.1,0.1-0.1,0.2-0.2,0.3C13.5,8.9,13.3,9,13,9 C12.9,9,12.7,9,12.6,8.9z M18.9,15.4l-4,8C14.7,23.8,14.4,24,14,24c-0.2,0-0.3,0-0.4-0.1c-0.5-0.2-0.7-0.8-0.4-1.3l4-8 c0.2-0.5,0.8-0.7,1.3-0.4C18.9,14.4,19.1,15,18.9,15.4z M24.7,19.7l-3,3C21.5,22.9,21.3,23,21,23s-0.5-0.1-0.7-0.3 c-0.4-0.4-0.4-1,0-1.4l2.3-2.3l-2.3-2.3c-0.4-0.4-0.4-1,0-1.4s1-0.4,1.4,0l3,3C25.1,18.7,25.1,19.3,24.7,19.7z"></path> </g></svg>